<svg width="262" height="89" viewBox="0 0 262 89" fill="none" xmlns="http://www.w3.org/2000/svg">
<circle cx="42" cy="30" r="29.5" stroke="#882D17"/>
<circle cx="220" cy="30" r="29.5" stroke="#882D17"/>
<circle cx="131" cy="30" r="29.5" stroke="#882D17"/>
<path d="M78.5469 82.2266L82.2148 83.709V84.8574L77.4219 82.6367V81.7812L82.2148 79.5664V80.7148L78.5469 82.2266ZM97.7363 83.7734H94.1621L93.3594 86H92.1992L95.457 77.4688H96.4414L99.7051 86H98.5508L97.7363 83.7734ZM94.502 82.8477H97.4023L95.9492 78.8574L94.502 82.8477ZM109.836 77.4688V83.2695C109.832 84.0742 109.578 84.7324 109.074 85.2441C108.574 85.7559 107.895 86.043 107.035 86.1055L106.736 86.1172C105.803 86.1172 105.059 85.8652 104.504 85.3613C103.949 84.8574 103.668 84.1641 103.66 83.2812V77.4688H104.773V83.2461C104.773 83.8633 104.943 84.3438 105.283 84.6875C105.623 85.0273 106.107 85.1973 106.736 85.1973C107.373 85.1973 107.859 85.0273 108.195 84.6875C108.535 84.3477 108.705 83.8691 108.705 83.252V77.4688H109.836ZM126.816 83.293C126.711 84.1953 126.377 84.8926 125.814 85.3848C125.256 85.873 124.512 86.1172 123.582 86.1172C122.574 86.1172 121.766 85.7559 121.156 85.0332C120.551 84.3105 120.248 83.3438 120.248 82.1328V81.3125C120.248 80.5195 120.389 79.8223 120.67 79.2207C120.955 78.6191 121.357 78.1582 121.877 77.8379C122.396 77.5137 122.998 77.3516 123.682 77.3516C124.588 77.3516 125.314 77.6055 125.861 78.1133C126.408 78.6172 126.727 79.3164 126.816 80.2109H125.686C125.588 79.5312 125.375 79.0391 125.047 78.7344C124.723 78.4297 124.268 78.2773 123.682 78.2773C122.963 78.2773 122.398 78.543 121.988 79.0742C121.582 79.6055 121.379 80.3613 121.379 81.3418V82.168C121.379 83.0938 121.572 83.8301 121.959 84.377C122.346 84.9238 122.887 85.1973 123.582 85.1973C124.207 85.1973 124.686 85.0566 125.018 84.7754C125.354 84.4902 125.576 83.9961 125.686 83.293H126.816ZM137.896 82.0098C137.896 82.8457 137.756 83.5762 137.475 84.2012C137.193 84.8223 136.795 85.2969 136.279 85.625C135.764 85.9531 135.162 86.1172 134.475 86.1172C133.803 86.1172 133.207 85.9531 132.688 85.625C132.168 85.293 131.764 84.8223 131.475 84.2129C131.189 83.5996 131.043 82.8906 131.035 82.0859V81.4707C131.035 80.6504 131.178 79.9258 131.463 79.2969C131.748 78.668 132.15 78.1875 132.67 77.8555C133.193 77.5195 133.791 77.3516 134.463 77.3516C135.146 77.3516 135.748 77.5176 136.268 77.8496C136.791 78.1777 137.193 78.6562 137.475 79.2852C137.756 79.9102 137.896 80.6387 137.896 81.4707V82.0098ZM136.777 81.459C136.777 80.4473 136.574 79.6719 136.168 79.1328C135.762 78.5898 135.193 78.3184 134.463 78.3184C133.752 78.3184 133.191 78.5898 132.781 79.1328C132.375 79.6719 132.166 80.4219 132.154 81.3828V82.0098C132.154 82.9902 132.359 83.7617 132.77 84.3242C133.184 84.8828 133.752 85.1621 134.475 85.1621C135.201 85.1621 135.764 84.8984 136.162 84.3711C136.561 83.8398 136.766 83.0801 136.777 82.0918V81.459ZM142.561 86V77.4688H144.969C145.711 77.4688 146.367 77.6328 146.938 77.9609C147.508 78.2891 147.947 78.7559 148.256 79.3613C148.568 79.9668 148.727 80.6621 148.73 81.4473V81.9922C148.73 82.7969 148.574 83.502 148.262 84.1074C147.953 84.7129 147.51 85.1777 146.932 85.502C146.357 85.8262 145.688 85.9922 144.922 86H142.561ZM143.686 78.3945V85.0801H144.869C145.736 85.0801 146.41 84.8105 146.891 84.2715C147.375 83.7324 147.617 82.9648 147.617 81.9688V81.4707C147.617 80.502 147.389 79.75 146.932 79.2148C146.479 78.6758 145.834 78.4023 144.998 78.3945H143.686ZM158.234 82.0566H154.537V85.0801H158.832V86H153.412V77.4688H158.773V78.3945H154.537V81.1367H158.234V82.0566ZM166.338 82.5488H164.334V86H163.203V77.4688H166.027C166.988 77.4688 167.727 77.6875 168.242 78.125C168.762 78.5625 169.021 79.1992 169.021 80.0352C169.021 80.5664 168.877 81.0293 168.588 81.4238C168.303 81.8184 167.904 82.1133 167.393 82.3086L169.396 85.9297V86H168.189L166.338 82.5488ZM164.334 81.6289H166.062C166.621 81.6289 167.064 81.4844 167.393 81.1953C167.725 80.9062 167.891 80.5195 167.891 80.0352C167.891 79.5078 167.732 79.1035 167.416 78.8223C167.104 78.541 166.65 78.3984 166.057 78.3945H164.334V81.6289ZM183.201 82.1914L179.328 80.6738V79.5605L184.332 81.7754V82.6309L179.328 84.8516V83.7266L183.201 82.1914Z" fill="#882D17"/>
</svg>
