<svg width="262" height="89" viewBox="0 0 262 89" fill="none" xmlns="http://www.w3.org/2000/svg">
<path d="M1.54688 7.22656L5.21484 8.70898V9.85742L0.421875 7.63672V6.78125L5.21484 4.56641V5.71484L1.54688 7.22656ZM20.7363 8.77344H17.1621L16.3594 11H15.1992L18.457 2.46875H19.4414L22.7051 11H21.5508L20.7363 8.77344ZM17.502 7.84766H20.4023L18.9492 3.85742L17.502 7.84766ZM29.959 7.54883H27.9551V11H26.8242V2.46875H29.6484C30.6094 2.46875 31.3477 2.6875 31.8633 3.125C32.3828 3.5625 32.6426 4.19922 32.6426 5.03516C32.6426 5.56641 32.498 6.0293 32.209 6.42383C31.9238 6.81836 31.5254 7.11328 31.0137 7.30859L33.0176 10.9297V11H31.8105L29.959 7.54883ZM27.9551 6.62891H29.6836C30.2422 6.62891 30.6855 6.48438 31.0137 6.19531C31.3457 5.90625 31.5117 5.51953 31.5117 5.03516C31.5117 4.50781 31.3535 4.10352 31.0371 3.82227C30.7246 3.54102 30.2715 3.39844 29.6777 3.39453H27.9551V6.62891ZM42.8613 3.39453H40.1191V11H39V3.39453H36.2637V2.46875H42.8613V3.39453ZM48.0762 11H46.9512V2.46875H48.0762V11ZM57.8203 7.23242H54.2402V11H53.1152V2.46875H58.4004V3.39453H54.2402V6.3125H57.8203V7.23242ZM63.9316 11H62.8066V2.46875H63.9316V11ZM75.2461 8.29297C75.1406 9.19531 74.8066 9.89258 74.2441 10.3848C73.6855 10.873 72.9414 11.1172 72.0117 11.1172C71.0039 11.1172 70.1953 10.7559 69.5859 10.0332C68.9805 9.31055 68.6777 8.34375 68.6777 7.13281V6.3125C68.6777 5.51953 68.8184 4.82227 69.0996 4.2207C69.3848 3.61914 69.7871 3.1582 70.3066 2.83789C70.8262 2.51367 71.4277 2.35156 72.1113 2.35156C73.0176 2.35156 73.7441 2.60547 74.291 3.11328C74.8379 3.61719 75.1562 4.31641 75.2461 5.21094H74.1152C74.0176 4.53125 73.8047 4.03906 73.4766 3.73438C73.1523 3.42969 72.6973 3.27734 72.1113 3.27734C71.3926 3.27734 70.8281 3.54297 70.418 4.07422C70.0117 4.60547 69.8086 5.36133 69.8086 6.3418V7.16797C69.8086 8.09375 70.002 8.83008 70.3887 9.37695C70.7754 9.92383 71.3164 10.1973 72.0117 10.1973C72.6367 10.1973 73.1152 10.0566 73.4473 9.77539C73.7832 9.49023 74.0059 8.99609 74.1152 8.29297H75.2461ZM80.9707 11H79.8457V2.46875H80.9707V11ZM90.7207 8.77344H87.1465L86.3438 11H85.1836L88.4414 2.46875H89.4258L92.6895 11H91.5352L90.7207 8.77344ZM87.4863 7.84766H90.3867L88.9336 3.85742L87.4863 7.84766ZM97.9453 10.0801H101.988V11H96.8145V2.46875H97.9453V10.0801ZM118.207 2.46875V8.26953C118.203 9.07422 117.949 9.73242 117.445 10.2441C116.945 10.7559 116.266 11.043 115.406 11.1055L115.107 11.1172C114.174 11.1172 113.43 10.8652 112.875 10.3613C112.32 9.85742 112.039 9.16406 112.031 8.28125V2.46875H113.145V8.24609C113.145 8.86328 113.314 9.34375 113.654 9.6875C113.994 10.0273 114.479 10.1973 115.107 10.1973C115.744 10.1973 116.23 10.0273 116.566 9.6875C116.906 9.34766 117.076 8.86914 117.076 8.25195V2.46875H118.207ZM129.516 11H128.385L124.09 4.42578V11H122.959V2.46875H124.09L128.396 9.07227V2.46875H129.516V11ZM135.697 11H134.572V2.46875H135.697V11ZM147.293 11H146.162L141.867 4.42578V11H140.736V2.46875H141.867L146.174 9.07227V2.46875H147.293V11ZM157.928 3.39453H155.186V11H154.066V3.39453H151.33V2.46875H157.928V3.39453ZM166.758 7.05664H163.061V10.0801H167.355V11H161.936V2.46875H167.297V3.39453H163.061V6.13672H166.758V7.05664ZM172.863 10.0801H176.906V11H171.732V2.46875H172.863V10.0801ZM182.297 10.0801H186.34V11H181.166V2.46875H182.297V10.0801ZM191.807 11H190.682V2.46875H191.807V11ZM203.145 9.88086C202.855 10.2949 202.451 10.6055 201.932 10.8125C201.416 11.0156 200.814 11.1172 200.127 11.1172C199.432 11.1172 198.814 10.9551 198.275 10.6309C197.736 10.3027 197.318 9.83789 197.021 9.23633C196.729 8.63477 196.578 7.9375 196.57 7.14453V6.40039C196.57 5.11523 196.869 4.11914 197.467 3.41211C198.068 2.70508 198.912 2.35156 199.998 2.35156C200.889 2.35156 201.605 2.58008 202.148 3.03711C202.691 3.49023 203.023 4.13477 203.145 4.9707H202.02C201.809 3.8418 201.137 3.27734 200.004 3.27734C199.25 3.27734 198.678 3.54297 198.287 4.07422C197.9 4.60156 197.705 5.36719 197.701 6.37109V7.06836C197.701 8.02539 197.92 8.78711 198.357 9.35352C198.795 9.91602 199.387 10.1973 200.133 10.1973C200.555 10.1973 200.924 10.1504 201.24 10.0566C201.557 9.96289 201.818 9.80469 202.025 9.58203V7.66602H200.051V6.75195H203.145V9.88086ZM212.824 7.05664H209.127V10.0801H213.422V11H208.002V2.46875H213.363V3.39453H209.127V6.13672H212.824V7.05664ZM224.355 11H223.225L218.93 4.42578V11H217.799V2.46875H218.93L223.236 9.07227V2.46875H224.355V11ZM235.605 8.29297C235.5 9.19531 235.166 9.89258 234.604 10.3848C234.045 10.873 233.301 11.1172 232.371 11.1172C231.363 11.1172 230.555 10.7559 229.945 10.0332C229.34 9.31055 229.037 8.34375 229.037 7.13281V6.3125C229.037 5.51953 229.178 4.82227 229.459 4.2207C229.744 3.61914 230.146 3.1582 230.666 2.83789C231.186 2.51367 231.787 2.35156 232.471 2.35156C233.377 2.35156 234.104 2.60547 234.65 3.11328C235.197 3.61719 235.516 4.31641 235.605 5.21094H234.475C234.377 4.53125 234.164 4.03906 233.836 3.73438C233.512 3.42969 233.057 3.27734 232.471 3.27734C231.752 3.27734 231.188 3.54297 230.777 4.07422C230.371 4.60547 230.168 5.36133 230.168 6.3418V7.16797C230.168 8.09375 230.361 8.83008 230.748 9.37695C231.135 9.92383 231.676 10.1973 232.371 10.1973C232.996 10.1973 233.475 10.0566 233.807 9.77539C234.143 9.49023 234.365 8.99609 234.475 8.29297H235.605ZM244.945 7.05664H241.248V10.0801H245.543V11H240.123V2.46875H245.484V3.39453H241.248V6.13672H244.945V7.05664ZM259.541 7.19141L255.668 5.67383V4.56055L260.672 6.77539V7.63086L255.668 9.85156V8.72656L259.541 7.19141Z" fill="#882D17"/>
<circle cx="42" cy="59" r="29.5" stroke="#882D17"/>
<circle cx="220" cy="59" r="29.5" stroke="#882D17"/>
<circle cx="131" cy="59" r="29.5" stroke="#882D17"/>
</svg>
