<svg width="115" height="115" viewBox="0 0 115 115" fill="none" xmlns="http://www.w3.org/2000/svg">
<rect width="115" height="115" fill="#882D17"/>
<circle cx="26.5" cy="32.5" r="12" stroke="white"/>
<circle cx="88.5" cy="32.5" r="12" stroke="white"/>
<circle cx="57.5" cy="32.5" r="12" stroke="white"/>
<path d="M46.875 82.3125H38.6562L37.0938 87H32.1094L40.5781 64.25H44.9219L53.4375 87H48.4531L46.875 82.3125ZM39.9219 78.5156H45.6094L42.75 70L39.9219 78.5156ZM80.75 64.25V79.2344C80.75 81.724 79.9688 83.6927 78.4062 85.1406C76.8542 86.5885 74.7292 87.3125 72.0312 87.3125C69.375 87.3125 67.2656 86.6094 65.7031 85.2031C64.1406 83.7969 63.3438 81.8646 63.3125 79.4062V64.25H68V79.2656C68 80.7552 68.3542 81.8438 69.0625 82.5312C69.7812 83.2083 70.7708 83.5469 72.0312 83.5469C74.6667 83.5469 76.0052 82.1615 76.0469 79.3906V64.25H80.75Z" fill="white"/>
</svg>
